<?xml version="1.0" encoding="UTF-8"?>
<svg id="Layer_1" data-name="Layer 1" xmlns="http://www.w3.org/2000/svg" viewBox="0 0 512.55 508.02">
  <defs>
    <style>
      .cls-1 {
        fill: #003c5e;
      }

      .cls-1, .cls-2 {
        stroke-width: 0px;
      }

      .cls-2 {
        fill: #fff;
      }
    </style>
  </defs>
  <path class="cls-2" d="M120.73,332.78c3.37,3.23,7.18,5.71,12.08,4.85,5.88-1.07,11.64-2.37,17.52-3.56,13.38-2.58,26.88-5.18,40.04-7.66,1.31,1.83,1.08,3.56.87,5.07-1.08,7.44-1.74,14.88-2.07,22.43-.44,9.82-1.42,19.63-2.29,29.44-1.31,15.42-2.83,30.95-4.24,46.37-.87,9.82-1.52,19.63-2.39,29.44-.98,11.75-2.29,23.41-2.94,35.16-.44,7.34,3.81,11.75,11.32,13.49,4.79,1.07,10.99-2.37,13.6-7.76,4.46-9.38,8.81-18.88,13.27-28.26,18.28-38.08,36.45-76.04,54.83-114.01,1.31-2.7,2.07-5.71,5-7.87,1.63,1.07,3.37,1.95,4.89,3.23,12.84,11.22,25.67,22.54,38.52,33.76,4.79,4.2,9.25,4.74,14.9,1.72,5.33-2.81,8.05-7.76,6.96-13.26-1.85-10.03-4.02-19.95-5.88-29.98-1.74-9.17-3.48-18.34-5.22-27.5,2.94-.86,5.33-.65,7.62-.44,14.69,1.4,29.37,2.81,44.06,4.1,10.77.97,21.54,1.4,32.42,2.37,15.45,1.3,30.79,2.91,46.24,4.1,11.86.86,23.72,1.51,35.58,3.13,6.09.86,12.4-1.83,15.13-6.47,2.83-4.85,2.72-9.71-.76-14.13-2.72-3.56-7.07-4.74-10.99-6.58-33.51-15.75-66.9-31.71-100.42-47.46-10.56-4.96-21.33-9.82-31.88-14.77-4.89-2.27-15-7.04-14.47-7.66,4.24-6.47,9.79-11.65,14.58-17.37,7.51-8.73,15.23-17.25,22.52-26.1,3.26-3.88,3.81-8.63,1.08-13.05-2.83-4.53-6.86-7.44-12.72-6.36-10.99,1.95-21.87,4.32-32.85,5.93-8.05,1.3-15.89,3.99-24.37,3.99-.11-1.83-.44-3.13-.21-4.32,1.2-8.31,1.42-16.72,2.18-25.13.87-9.27,1.52-18.55,2.29-27.82,1.2-15.1,2.72-30.2,4.13-45.41.87-9.92,1.52-19.95,2.39-29.98.98-11.75,2.29-23.52,3.05-35.27.32-5.71-3.37-10.57-8.59-12.4-5.44-1.95-9.79-.11-13.6,3.88-1.85,2.05-3.15,4.42-4.24,6.8-9.03,18.99-17.95,37.85-26.98,56.84-13.71,28.69-27.41,57.38-41.23,86.07-.65,1.4-1.08,3.13-3.49,3.56-6.86-5.93-13.93-11.98-21-18.12-7.29-6.15-14.47-12.4-21.76-18.55-4.36-3.67-9.25-3.78-14.03-.65-4.57,2.91-7.18,8.73-6.09,14.02,1.96,10.03,4.24,19.95,5.99,29.98,1.42,7.98,3.92,15.86,4.36,23.73-1.85,1.3-3.26,1.07-4.68.97-16.76-1.4-33.4-2.81-50.16-4.2-10.12-.86-20.13-1.4-30.24-2.37-14.9-1.3-29.81-2.81-44.72-4.1-11.64-1.07-23.39-1.83-34.92-3.13-9.03-1.07-15.66,2.05-17.95,9.17-2.29,7.01.55,12.3,9.36,16.39,28.83,13.7,57.77,27.29,86.71,40.87,13.38,6.36,26.77,12.51,40.15,18.88,7.62,3.56,15.13,7.44,22.85,11.22-.87,1.19-1.42,1.95-1.96,2.58-12.29,14.02-24.7,28.05-36.99,42.17-4.36,5.07-4.57,8.96-.11,15.64v.32l-.03.03Z"/>
  <g>
    <path class="cls-1" d="M271.37,232.79c-1.23,1.56-2.23,3.01-5.01,3.01,20.61-76.31,41.22-152.29,61.72-228.27.45,0,.89.11,1.34.22-.33,4.34-.45,8.58-.89,12.92-1.78,19.5-3.68,38.88-5.35,58.38-.89,10.14-1.56,20.28-2.45,30.3-1.34,16.38-2.9,32.64-4.23,49.02-.45,5.35-1.56,10.69-1.11,15.93.56,7.35-3.01,12.03-7.58,17.05-12.25,13.59-24.18,27.41-36.54,41.44h.11,0Z"/>
    <path class="cls-1" d="M305.13,270.11c65.95,17.71,131.46,35.32,196.97,52.92,0,.45,0,1-.11,1.45-3.79,0-7.46.22-11.25,0-12.37-1-24.62-2.01-36.99-3.23-15.04-1.34-30.08-3.01-45.12-4.34-10.47-.89-20.94-1.56-31.53-2.34-14.93-1.11-29.86-2.34-44.67-3.45-2.12-.11-3.9-1.23-5.46-2.56-13.26-11.81-26.51-23.51-39.88-35.32-3.45-3.12-7.91-5.24-10.36-10.92,9.92,2.67,18.83,5.12,28.3,7.69l.11.11h-.01Z"/>
    <path class="cls-1" d="M209.1,236.35c-66.51-17.94-132.57-35.65-198.64-53.36,0-.45,0-.89.11-1.34,4.79.33,9.69,0,14.26,1,6.8,1.45,13.59,1.11,20.39,1.78,20.05,2.01,40.11,2.9,60.16,4.79,17.6,1.67,35.32,3.34,52.92,4.34,8.13.45,16.15,1.56,24.18,2.12,2.79.22,4.34,2.01,6.13,3.45,15.6,13.59,31.19,27.18,46.79,40.89,1.11.89,2.45,1.78,2.23,3.9-9.47-2.56-18.83-5.01-28.63-7.69l.11.11h-.01Z"/>
    <path class="cls-1" d="M228.48,345.75c-13.93,51.92-27.85,103.27-41.67,154.74-.45,0-.89-.11-1.34-.22.33-4.9.56-9.92,1-14.82,1-11.92,2.12-23.84,3.12-35.76,1.45-16.15,2.9-32.31,4.34-48.46,1.23-14.71,2.34-29.41,3.45-44.12.78-9.92,1.34-19.94,2.45-29.75.56-5.01,5.35-7.46,8.24-10.81,11.59-12.92,22.73-26.29,34.2-39.33,1.56-1.78,3.34-3.23,6.02-4.34-6.57,24.18-13.26,48.24-19.94,72.86h.13Z"/>
    <path class="cls-1" d="M282.85,345.98c-3.56-1.67-3.68-4.46-4.23-7.46-3.34-17.71-7.02-35.43-10.47-53.14-.22-1,0-2.12,1.23-3.68,19.05,33.2,38.21,66.29,57.26,99.49-.67.56-1.23,1-1.89,1.56-13.81-12.14-27.63-24.29-41.78-36.76h-.12Z"/>
    <path class="cls-1" d="M347.13,231c-11.92,4.34-24.06,5.12-35.98,7.8-8.58,1.89-17.16,3.45-25.85,5.12l-.56-1.45c33.31-19.16,66.73-38.21,100.04-57.37.33.33.67.78,1,1.11-12.81,14.82-25.62,29.63-38.77,44.67l.11.11h.01Z"/>
    <path class="cls-1" d="M186.59,289.72c-19.83,11.47-39.33,22.73-59.6,34.54.56-3.68,3.12-4.9,4.68-6.68,10.92-12.81,22.06-25.29,32.86-38.1,2.9-3.34,6.46-4.68,10.47-5.46,17.16-3.34,34.31-6.68,51.58-10.03.45,0,1,.22,2.79.67-14.26,9.47-28.63,16.71-42.78,25.18v-.11h0Z"/>
    <path class="cls-1" d="M206.54,156.14c-5.9-10.25-11.59-20.16-17.6-30.75,3.23.78,5.01,2.01,6.91,3.56,11.03,9.8,22.17,19.5,33.31,29.19,3.79,3.34,6.8,6.8,7.69,12.25,2.79,15.6,6.02,31.08,9.02,46.68.22,1.23-.11,2.56-.22,3.79-.45.22-1,.45-1.45.67-12.48-21.72-25.07-43.34-37.77-65.4h.11Z"/>
  </g>
</svg>